<svg width="1240" height="559" viewBox="0 0 1240 559" fill="none" xmlns="http://www.w3.org/2000/svg">
<mask id="mask0" style="mask-type:alpha" maskUnits="userSpaceOnUse" x="0" y="0" width="1240" height="559">
<path d="M1225 0H15C6.71573 0 0 6.71573 0 15V544C0 552.284 6.71573 559 15 559H1225C1233.28 559 1240 552.284 1240 544V15C1240 6.71573 1233.28 0 1225 0Z" fill="#FAFBFC"/>
</mask>
<g mask="url(#mask0)">
<path d="M761.411 677.087C652.377 661.063 508.83 774.524 418.5 720.5C328.17 666.476 569.955 596.378 600.5 487.5C630.781 378.408 441.242 137.038 513.922 37.9652C586.603 -61.108 642.606 -169.296 721.784 -165.827C800.724 -162.334 902.627 -46.92 973.877 25.5618C1045.15 98.2827 1086.04 128.285 1145.63 156.793C1205.21 185.301 1283.74 212.289 1347.06 273.764C1410.37 335.24 1458.24 431.228 1453.68 527.446C1449.13 623.903 1392.37 720.325 1308.4 765.231C1224.43 810.137 1113.48 803.502 1025.04 774.179C936.601 744.856 870.446 693.11 761.411 677.087Z" fill="#DBDBDB"/>
<path d="M-177.937 583.316C-213.886 509.994 -213.438 419.828 -210.652 330.035C-207.866 240.242 -202.821 150.589 -160.784 83.9519C-118.903 17.2384 -39.7974 -26.5378 36.2885 -24.2769C112.607 -22.0956 186.139 26.0433 273.844 30.7129C361.471 35.5389 463.348 -3.26077 536.159 20.2793C609.048 43.6632 652.792 129.154 668.368 217.103C684.1 305.129 671.431 395.694 631.212 466.133C590.836 536.495 522.91 586.732 454.84 616.726C386.85 646.953 318.871 657.014 243.583 679.196C168.294 701.377 85.6944 735.68 8.14383 724.553C-69.3299 713.27 -141.832 656.715 -177.937 583.316Z" fill="#D6D6D6"/>
<path d="M776.534 222.814C741.157 159.02 737.493 78.5578 735.932 -1.67703C734.371 -81.9118 734.832 -162.124 769.332 -223.469C803.69 -284.875 872.292 -327.495 940.274 -328.907C1008.46 -330.4 1076.23 -290.766 1154.69 -290.553C1233.08 -290.196 1322.22 -329.403 1388.24 -311.683C1454.32 -294.106 1497.2 -219.806 1515.06 -142.044C1533.07 -64.22 1525.84 17.1482 1493.14 81.8031C1460.29 146.397 1401.95 194.277 1342.57 224.104C1283.28 254.135 1223.08 266.175 1156.91 289.357C1090.75 312.54 1018.6 346.865 948.911 340.433C879.284 333.859 812.053 286.67 776.534 222.814Z" fill="#D8D8D8"/>
</g>
</svg>
